<mxfile host="65bd71144e" scale="1" border="20">
    <diagram id="oDMbh92-PtcjfYrn53Tg" name="architecture-simplified">
        <mxGraphModel dx="738" dy="817" grid="1" gridSize="10" guides="1" tooltips="1" connect="1" arrows="1" fold="1" page="1" pageScale="1" pageWidth="1169" pageHeight="827" background="#FFFFFF" math="0" shadow="0">
            <root>
                <mxCell id="tDVvSmextYM0Kb6gsicG-0"/>
                <mxCell id="tDVvSmextYM0Kb6gsicG-1" parent="tDVvSmextYM0Kb6gsicG-0"/>
                <mxCell id="CtMoRwQ9jE-Gh7hoMk9P-5" value="&lt;u style=&quot;font-size: 24px&quot;&gt;&lt;b style=&quot;font-size: 24px&quot;&gt;Simplified Architecture Diagram&lt;/b&gt;&lt;/u&gt;" style="text;html=1;align=center;verticalAlign=middle;resizable=0;points=[];autosize=1;strokeColor=none;fillColor=none;fontSize=24;" parent="tDVvSmextYM0Kb6gsicG-1" vertex="1">
                    <mxGeometry x="395" y="90" width="380" height="30" as="geometry"/>
                </mxCell>
                <mxCell id="zL9wBNRMiConQpPfNQX0-2" style="edgeStyle=none;html=1;exitX=1;exitY=0.5;exitDx=0;exitDy=0;entryX=-0.002;entryY=0.32;entryDx=0;entryDy=0;entryPerimeter=0;fontSize=11;startArrow=none;startFill=0;endArrow=classic;endFill=1;rounded=0;" parent="tDVvSmextYM0Kb6gsicG-1" source="bpKy_OQ-aXYwijX67sHq-0" target="P0r42T1VGlDcaN4_4OXJ-0" edge="1">
                    <mxGeometry relative="1" as="geometry"/>
                </mxCell>
                <mxCell id="bpKy_OQ-aXYwijX67sHq-0" value="&lt;u&gt;Matching Service&lt;/u&gt;" style="whiteSpace=wrap;html=1;align=center;verticalAlign=middle;horizontal=1;spacingLeft=5;spacingTop=2;fontStyle=1;fillColor=#F4F8FC;strokeColor=#6c8ebf;" parent="tDVvSmextYM0Kb6gsicG-1" vertex="1">
                    <mxGeometry x="610" y="250" width="120" height="60" as="geometry"/>
                </mxCell>
                <mxCell id="GhuitUH7nbSEBxvdFYdD-0" value="&lt;u&gt;User Service&lt;/u&gt;" style="whiteSpace=wrap;html=1;align=left;verticalAlign=top;horizontal=1;spacingLeft=5;spacingTop=2;fontStyle=1;dashed=1;perimeterSpacing=1;" parent="tDVvSmextYM0Kb6gsicG-1" vertex="1">
                    <mxGeometry x="350" y="200" width="210" height="250" as="geometry"/>
                </mxCell>
                <mxCell id="zL9wBNRMiConQpPfNQX0-1" style="edgeStyle=none;html=1;exitX=1;exitY=0.5;exitDx=0;exitDy=0;entryX=0;entryY=0.5;entryDx=0;entryDy=0;fontSize=11;startArrow=none;startFill=0;endArrow=classic;endFill=1;rounded=0;" parent="tDVvSmextYM0Kb6gsicG-1" source="GhuitUH7nbSEBxvdFYdD-1" target="bpKy_OQ-aXYwijX67sHq-0" edge="1">
                    <mxGeometry relative="1" as="geometry"/>
                </mxCell>
                <mxCell id="GhuitUH7nbSEBxvdFYdD-1" value="&lt;span style=&quot;font-weight: normal&quot;&gt;Auth&lt;/span&gt;" style="whiteSpace=wrap;html=1;align=center;verticalAlign=middle;horizontal=1;spacingLeft=5;spacingTop=2;fontStyle=1;fillColor=#fff2cc;strokeColor=#d6b656;" parent="tDVvSmextYM0Kb6gsicG-1" vertex="1">
                    <mxGeometry x="395" y="250" width="120" height="60" as="geometry"/>
                </mxCell>
                <mxCell id="uswNRmLTmiKSvRYHOOuG-0" value="View in room &lt;br&gt;without communication &lt;br&gt;and collaboration" style="html=1;exitX=0.5;exitY=1;exitDx=0;exitDy=0;entryX=0.5;entryY=1;entryDx=0;entryDy=0;fontSize=11;startArrow=none;startFill=0;endArrow=classic;endFill=1;edgeStyle=orthogonalEdgeStyle;elbow=vertical;rounded=0;" parent="tDVvSmextYM0Kb6gsicG-1" source="6QvCmmfWS1lp0P5mWFfL-1" target="P0r42T1VGlDcaN4_4OXJ-0" edge="1">
                    <mxGeometry x="0.8145" relative="1" as="geometry">
                        <Array as="points">
                            <mxPoint x="455" y="505"/>
                            <mxPoint x="888" y="505"/>
                        </Array>
                        <mxPoint as="offset"/>
                    </mxGeometry>
                </mxCell>
                <mxCell id="6QvCmmfWS1lp0P5mWFfL-1" value="&lt;span style=&quot;font-weight: normal&quot;&gt;History&lt;/span&gt;" style="whiteSpace=wrap;html=1;align=center;verticalAlign=middle;horizontal=1;spacingLeft=5;spacingTop=2;fontStyle=1;fillColor=#F8EBFF;strokeColor=#9673a6;" parent="tDVvSmextYM0Kb6gsicG-1" vertex="1">
                    <mxGeometry x="395" y="340" width="120" height="60" as="geometry"/>
                </mxCell>
                <mxCell id="zL9wBNRMiConQpPfNQX0-0" value="" style="group" parent="tDVvSmextYM0Kb6gsicG-1" vertex="1" connectable="0">
                    <mxGeometry x="783" y="200" width="210" height="250" as="geometry"/>
                </mxCell>
                <mxCell id="P0r42T1VGlDcaN4_4OXJ-0" value="&lt;u&gt;Room Service&lt;/u&gt;&lt;span style=&quot;font-weight: normal&quot;&gt;&lt;br&gt;&lt;/span&gt;" style="whiteSpace=wrap;html=1;align=left;verticalAlign=top;horizontal=1;spacingLeft=5;spacingTop=2;fontStyle=1;fillColor=#FFE6CC;strokeColor=#d79b00;" parent="zL9wBNRMiConQpPfNQX0-0" vertex="1">
                    <mxGeometry width="210" height="250" as="geometry"/>
                </mxCell>
                <mxCell id="e21hzxhltxCmKFC5il1E-0" value="Collaboration" style="rounded=0;whiteSpace=wrap;html=1;fontSize=12;fontStyle=0;align=center;verticalAlign=middle;spacingLeft=5;spacingTop=2;fillColor=#E6FFCC;strokeColor=#4D9900;" parent="zL9wBNRMiConQpPfNQX0-0" vertex="1">
                    <mxGeometry x="45" y="50" width="120" height="60" as="geometry"/>
                </mxCell>
                <mxCell id="e21hzxhltxCmKFC5il1E-1" value="Communication" style="rounded=0;whiteSpace=wrap;html=1;fontSize=12;fontStyle=0;align=center;verticalAlign=middle;spacingLeft=5;spacingTop=2;fillColor=#FFFFCC;strokeColor=#999900;" parent="zL9wBNRMiConQpPfNQX0-0" vertex="1">
                    <mxGeometry x="45" y="140" width="120" height="60" as="geometry"/>
                </mxCell>
                <mxCell id="RPJ4z-cN3edCOCA063Ir-1" style="edgeStyle=none;html=1;exitX=0.5;exitY=0;exitDx=0;exitDy=0;entryX=0.5;entryY=1;entryDx=0;entryDy=0;fontSize=11;startArrow=classic;startFill=1;endArrow=classic;endFill=1;rounded=0;" parent="tDVvSmextYM0Kb6gsicG-1" source="RPJ4z-cN3edCOCA063Ir-0" target="bpKy_OQ-aXYwijX67sHq-0" edge="1">
                    <mxGeometry relative="1" as="geometry"/>
                </mxCell>
                <mxCell id="uswNRmLTmiKSvRYHOOuG-1" style="edgeStyle=orthogonalEdgeStyle;html=1;exitX=0.5;exitY=1;exitDx=0;exitDy=0;fontSize=11;startArrow=none;startFill=0;endArrow=oval;endFill=1;elbow=vertical;rounded=0;" parent="tDVvSmextYM0Kb6gsicG-1" source="RPJ4z-cN3edCOCA063Ir-0" edge="1">
                    <mxGeometry relative="1" as="geometry">
                        <mxPoint x="670" y="505" as="targetPoint"/>
                    </mxGeometry>
                </mxCell>
                <mxCell id="g1jOLcH2wIdzf5vWKWxd-0" style="edgeStyle=orthogonalEdgeStyle;shape=connector;rounded=0;html=1;exitX=0.5;exitY=1;exitDx=0;exitDy=0;labelBackgroundColor=default;fontFamily=Helvetica;fontSize=11;fontColor=default;startArrow=none;startFill=0;endArrow=oval;endFill=1;strokeColor=default;elbow=vertical;" parent="tDVvSmextYM0Kb6gsicG-1" source="RPJ4z-cN3edCOCA063Ir-0" edge="1">
                    <mxGeometry relative="1" as="geometry">
                        <mxPoint x="670.3333333333333" y="550" as="targetPoint"/>
                    </mxGeometry>
                </mxCell>
                <mxCell id="RPJ4z-cN3edCOCA063Ir-0" value="&lt;u&gt;Question Service&lt;/u&gt;" style="whiteSpace=wrap;html=1;align=center;verticalAlign=middle;horizontal=1;spacingLeft=5;spacingTop=2;fontStyle=1;fillColor=#f5f5f5;strokeColor=#666666;fontColor=#333333;" parent="tDVvSmextYM0Kb6gsicG-1" vertex="1">
                    <mxGeometry x="610" y="365" width="120" height="60" as="geometry"/>
                </mxCell>
                <mxCell id="KGM7g_pr0Xo_6IGdurda-1" style="edgeStyle=none;html=1;exitX=0.875;exitY=0.5;exitDx=0;exitDy=0;exitPerimeter=0;entryX=0;entryY=0.5;entryDx=0;entryDy=0;fontSize=11;startArrow=none;startFill=0;endArrow=classic;endFill=1;rounded=0;" parent="tDVvSmextYM0Kb6gsicG-1" source="KGM7g_pr0Xo_6IGdurda-0" target="GhuitUH7nbSEBxvdFYdD-0" edge="1">
                    <mxGeometry relative="1" as="geometry"/>
                </mxCell>
                <mxCell id="uswNRmLTmiKSvRYHOOuG-5" style="edgeStyle=orthogonalEdgeStyle;shape=connector;rounded=0;html=1;exitX=0.55;exitY=0.95;exitDx=0;exitDy=0;exitPerimeter=0;labelBackgroundColor=default;fontFamily=Helvetica;fontSize=11;fontColor=default;startArrow=none;startFill=0;endArrow=none;endFill=0;strokeColor=default;elbow=vertical;" parent="tDVvSmextYM0Kb6gsicG-1" source="KGM7g_pr0Xo_6IGdurda-0" edge="1">
                    <mxGeometry relative="1" as="geometry">
                        <mxPoint x="888" y="525" as="targetPoint"/>
                        <Array as="points">
                            <mxPoint x="226" y="550"/>
                            <mxPoint x="888" y="550"/>
                        </Array>
                    </mxGeometry>
                </mxCell>
                <mxCell id="KGM7g_pr0Xo_6IGdurda-0" value="&lt;b&gt;Users&lt;/b&gt;" style="ellipse;shape=cloud;whiteSpace=wrap;html=1;" parent="tDVvSmextYM0Kb6gsicG-1" vertex="1">
                    <mxGeometry x="160" y="285" width="120" height="80" as="geometry"/>
                </mxCell>
            </root>
        </mxGraphModel>
    </diagram>
</mxfile>